<svg id="Layer_1" data-name="Layer 1" xmlns="http://www.w3.org/2000/svg" viewBox="0 0 1366 768"><defs><style>.cls-1{fill:#fac1c3;}.cls-2{fill:#ed2227;}.cls-3{fill:#fcdede;}.cls-4{fill:#f05927;}</style></defs><rect class="cls-1" width="1365" height="768"/><path class="cls-2" d="M533.58,149.08a.56.56,0,0,1-.54-.46,25.65,25.65,0,0,0-6.85-12.83,24.1,24.1,0,0,0-9.07-5.71.58.58,0,0,1-.38-.57.57.57,0,0,1,.42-.54,21.2,21.2,0,0,0,9-5A23.1,23.1,0,0,0,533,110.3a.57.57,0,0,1,.55-.5h0a.57.57,0,0,1,.53.56,20.31,20.31,0,0,0,5.61,13.17,18.3,18.3,0,0,0,9.56,5.09.58.58,0,0,1,.46.51.6.6,0,0,1-.34.6,26,26,0,0,0-10.05,7.71,27.27,27.27,0,0,0-5.26,11.18.56.56,0,0,1-.54.46Z"/><path class="cls-3" d="M367.47,82.28a.36.36,0,0,1-.35-.29,15.64,15.64,0,0,0-10.37-11.61.37.37,0,0,1,0-.7,14,14,0,0,0,5.85-3.1A14.26,14.26,0,0,0,367.11,58a.37.37,0,0,1,.37-.32h0a.37.37,0,0,1,.35.35,12.48,12.48,0,0,0,3.65,8.25,12.13,12.13,0,0,0,6.23,3.19.36.36,0,0,1,.07.69A17.1,17.1,0,0,0,371.25,75a16.9,16.9,0,0,0-3.42,7,.37.37,0,0,1-.36.29Z"/><path class="cls-4" d="M902.15,149.4a.57.57,0,0,1-.55-.46,25.54,25.54,0,0,0-6.84-12.83,24.14,24.14,0,0,0-9.08-5.71.58.58,0,0,1-.38-.57.57.57,0,0,1,.42-.54,21.25,21.25,0,0,0,9-4.95,23.12,23.12,0,0,0,6.91-13.72.57.57,0,0,1,.55-.5h0a.57.57,0,0,1,.53.56,20.33,20.33,0,0,0,5.61,13.16,18.24,18.24,0,0,0,9.57,5.1.56.56,0,0,1,.45.51.58.58,0,0,1-.34.6,25.83,25.83,0,0,0-10,7.7,27.52,27.52,0,0,0-5.27,11.19.55.55,0,0,1-.54.46Z"/><path class="cls-3" d="M789.46,161.28a.36.36,0,0,1-.35-.29,15.64,15.64,0,0,0-10.37-11.61.39.39,0,0,1-.25-.36.37.37,0,0,1,.28-.34,14,14,0,0,0,5.84-3.1,14.34,14.34,0,0,0,4.5-8.59.36.36,0,0,1,.36-.32h0a.37.37,0,0,1,.35.35,12.48,12.48,0,0,0,3.65,8.25,12.13,12.13,0,0,0,6.23,3.19.37.37,0,0,1,.3.32.35.35,0,0,1-.22.37,16.77,16.77,0,0,0-10,11.84.37.37,0,0,1-.36.29Z"/><path class="cls-3" d="M1001.71,77.58a.35.35,0,0,1-.35-.29A15.69,15.69,0,0,0,991,65.68a.37.37,0,0,1-.25-.36A.38.38,0,0,1,991,65a14,14,0,0,0,5.85-3.1,14.23,14.23,0,0,0,4.49-8.59.37.37,0,0,1,.37-.31h0a.37.37,0,0,1,.35.35,12.46,12.46,0,0,0,3.65,8.24,12.15,12.15,0,0,0,6.23,3.2.36.36,0,0,1,.3.32.37.37,0,0,1-.23.37,16.73,16.73,0,0,0-10,11.84.38.38,0,0,1-.36.28Z"/><path class="cls-2" d="M1035.84,390.24a.35.35,0,0,1-.35-.29,15.64,15.64,0,0,0-10.37-11.61.38.38,0,0,1-.25-.36.37.37,0,0,1,.28-.34,14,14,0,0,0,5.84-3.1,14.34,14.34,0,0,0,4.5-8.59.37.37,0,0,1,.36-.32h0a.37.37,0,0,1,.35.35,12.48,12.48,0,0,0,3.65,8.25,12.13,12.13,0,0,0,6.23,3.19.37.37,0,0,1,.3.32.4.4,0,0,1-.22.38,16.67,16.67,0,0,0-10,11.83.37.37,0,0,1-.36.29Z"/><path class="cls-3" d="M1166.13,703.43a.53.53,0,0,1-.52-.44,24.57,24.57,0,0,0-6.54-12.26,23.11,23.11,0,0,0-8.67-5.45.56.56,0,0,1-.36-.55.55.55,0,0,1,.4-.51,20.33,20.33,0,0,0,8.57-4.73,22.18,22.18,0,0,0,6.6-13.11.53.53,0,0,1,.53-.47h0a.54.54,0,0,1,.51.53A19.41,19.41,0,0,0,1172,679a17.38,17.38,0,0,0,9.14,4.86.56.56,0,0,1,.1,1.06,24.89,24.89,0,0,0-9.59,7.37,26,26,0,0,0-5,10.68.53.53,0,0,1-.52.44Z"/><path class="cls-3" d="M1034.13,226.05a.55.55,0,0,1-.52-.44,24.41,24.41,0,0,0-6.54-12.26,23,23,0,0,0-8.66-5.45.55.55,0,0,1-.37-.55.57.57,0,0,1,.4-.52,20.14,20.14,0,0,0,8.57-4.72,22.12,22.12,0,0,0,6.6-13.11.55.55,0,0,1,.53-.48h0a.54.54,0,0,1,.51.53,19.37,19.37,0,0,0,5.36,12.57,17.48,17.48,0,0,0,9.14,4.87.56.56,0,0,1,.11,1.06,24.89,24.89,0,0,0-9.6,7.36,26.21,26.21,0,0,0-5,10.69.54.54,0,0,1-.53.44Z"/><path class="cls-4" d="M258.23,157.52a.35.35,0,0,1-.35-.29,15.64,15.64,0,0,0-10.37-11.61.38.38,0,0,1-.25-.36.37.37,0,0,1,.28-.34,14,14,0,0,0,5.84-3.1,14.34,14.34,0,0,0,4.5-8.59.37.37,0,0,1,.36-.32h0a.37.37,0,0,1,.35.35,12.48,12.48,0,0,0,3.65,8.25,12.13,12.13,0,0,0,6.23,3.19.37.37,0,0,1,.3.32.4.4,0,0,1-.22.38,16.67,16.67,0,0,0-10,11.83.37.37,0,0,1-.36.29Z"/><path class="cls-3" d="M351.1,236.2a.57.57,0,0,1-.55-.46,25.54,25.54,0,0,0-6.84-12.83,24.18,24.18,0,0,0-9.07-5.71.57.57,0,0,1-.38-.57.56.56,0,0,1,.42-.54,21.06,21.06,0,0,0,9-5,23.1,23.1,0,0,0,6.91-13.72.58.58,0,0,1,.56-.5h0a.57.57,0,0,1,.53.56,20.36,20.36,0,0,0,5.61,13.17,18.28,18.28,0,0,0,9.57,5.09.59.59,0,0,1,.11,1.11,25.87,25.87,0,0,0-10,7.71,27.25,27.25,0,0,0-5.26,11.19.57.57,0,0,1-.55.45Z"/><path class="cls-3" d="M683,109.73a.55.55,0,0,1-.54-.46,25.65,25.65,0,0,0-6.85-12.83,24.15,24.15,0,0,0-9.07-5.7.59.59,0,0,1,0-1.12,21.15,21.15,0,0,0,9-5A23.14,23.14,0,0,0,682.4,71a.57.57,0,0,1,.56-.5h0a.57.57,0,0,1,.54.55,20.27,20.27,0,0,0,5.6,13.17,18.32,18.32,0,0,0,9.57,5.09.59.59,0,0,1,.11,1.11,26,26,0,0,0-10,7.71,27.31,27.31,0,0,0-5.26,11.19.57.57,0,0,1-.55.45Z"/><path class="cls-2" d="M1181,148.73a.55.55,0,0,1-.54-.46,25.65,25.65,0,0,0-6.85-12.83,24.15,24.15,0,0,0-9.07-5.7.59.59,0,0,1,0-1.12,21.15,21.15,0,0,0,9-5,23.14,23.14,0,0,0,6.9-13.71.57.57,0,0,1,.56-.5h0a.57.57,0,0,1,.54.55,20.27,20.27,0,0,0,5.6,13.17,18.32,18.32,0,0,0,9.57,5.09.59.59,0,0,1,.11,1.11,26,26,0,0,0-10,7.71,27.31,27.31,0,0,0-5.26,11.19.57.57,0,0,1-.55.45Z"/><path class="cls-3" d="M1180.92,424.42a.5.5,0,0,1-.49-.4,22.57,22.57,0,0,0-6-11.32,21.32,21.32,0,0,0-8-5,.52.52,0,0,1,0-1,18.73,18.73,0,0,0,7.92-4.37,20.41,20.41,0,0,0,6.09-12.1.51.51,0,0,1,.49-.45h0a.49.49,0,0,1,.47.48,18,18,0,0,0,4.95,11.62,16.19,16.19,0,0,0,8.44,4.5.5.5,0,0,1,.4.45.51.51,0,0,1-.3.53,22.83,22.83,0,0,0-8.86,6.8,24.16,24.16,0,0,0-4.64,9.87.49.49,0,0,1-.48.4Z"/><path class="cls-4" d="M79.84,82.4a.36.36,0,0,1-.35-.29A15.64,15.64,0,0,0,69.12,70.5a.39.39,0,0,1-.25-.36.38.38,0,0,1,.27-.34A14,14,0,0,0,75,66.7a14.26,14.26,0,0,0,4.49-8.59.37.37,0,0,1,.37-.32h0a.37.37,0,0,1,.35.35,12.48,12.48,0,0,0,3.65,8.25,12.13,12.13,0,0,0,6.23,3.19.37.37,0,0,1,.3.32.38.38,0,0,1-.22.37,16.71,16.71,0,0,0-10,11.84.37.37,0,0,1-.36.29Z"/><path class="cls-3" d="M1270.84,284.4a.36.36,0,0,1-.35-.29,15.64,15.64,0,0,0-10.37-11.61.39.39,0,0,1-.25-.36.38.38,0,0,1,.27-.34,14,14,0,0,0,5.85-3.1,14.26,14.26,0,0,0,4.49-8.59.37.37,0,0,1,.37-.32h0a.37.37,0,0,1,.35.35,12.48,12.48,0,0,0,3.65,8.25,12.13,12.13,0,0,0,6.23,3.19.37.37,0,0,1,.3.32.38.38,0,0,1-.22.37,16.71,16.71,0,0,0-10,11.84.37.37,0,0,1-.36.29Z"/><path class="cls-3" d="M151.53,242a.55.55,0,0,1-.52-.44,24.41,24.41,0,0,0-6.54-12.26,23,23,0,0,0-8.66-5.45.55.55,0,0,1-.37-.55.57.57,0,0,1,.4-.52,20.05,20.05,0,0,0,8.57-4.73,22.07,22.07,0,0,0,6.6-13.1.56.56,0,0,1,.53-.48h0a.55.55,0,0,1,.5.53,19.37,19.37,0,0,0,5.36,12.58,17.48,17.48,0,0,0,9.14,4.87.55.55,0,0,1,.43.49.54.54,0,0,1-.32.57,24.89,24.89,0,0,0-9.6,7.36,26.21,26.21,0,0,0-5,10.69.54.54,0,0,1-.52.44Z"/><path class="cls-4" d="M1089.44,530.49a.37.37,0,0,1-.36-.29,15.65,15.65,0,0,0-10.36-11.61.37.37,0,0,1,0-.7,13.86,13.86,0,0,0,5.84-3.1,14.23,14.23,0,0,0,4.5-8.59.37.37,0,0,1,.36-.32h0a.37.37,0,0,1,.35.35,12.38,12.38,0,0,0,3.65,8.25,12.09,12.09,0,0,0,6.23,3.19.35.35,0,0,1,.29.32.37.37,0,0,1-.22.38,16.73,16.73,0,0,0-10,11.83.35.35,0,0,1-.35.29Z"/><path class="cls-3" d="M1259.55,582.82a.57.57,0,0,1-.55-.45,25.51,25.51,0,0,0-6.84-12.83,24.05,24.05,0,0,0-9.07-5.71.59.59,0,0,1,0-1.12,21,21,0,0,0,9-5,23.08,23.08,0,0,0,6.91-13.71.57.57,0,0,1,.55-.5h0a.56.56,0,0,1,.53.55,20.33,20.33,0,0,0,5.61,13.17,18.38,18.38,0,0,0,9.57,5.1.55.55,0,0,1,.45.51.56.56,0,0,1-.34.59,25.87,25.87,0,0,0-10,7.71,27.37,27.37,0,0,0-5.26,11.19.57.57,0,0,1-.55.45Z"/><path class="cls-4" d="M1129.8,297.16a.37.37,0,0,1-.36-.29,15.64,15.64,0,0,0-10.37-11.61.36.36,0,0,1-.24-.36.35.35,0,0,1,.27-.34,14,14,0,0,0,5.84-3.1,14.34,14.34,0,0,0,4.5-8.59.37.37,0,0,1,.36-.32h0a.37.37,0,0,1,.34.35,12.46,12.46,0,0,0,3.66,8.25,12.09,12.09,0,0,0,6.23,3.19.36.36,0,0,1,.29.32.37.37,0,0,1-.22.38,16.73,16.73,0,0,0-10,11.83.36.36,0,0,1-.35.29Z"/><path class="cls-4" d="M1286.8,82.16a.37.37,0,0,1-.36-.29,15.64,15.64,0,0,0-10.37-11.61.36.36,0,0,1-.24-.36.35.35,0,0,1,.27-.34,14,14,0,0,0,5.84-3.1,14.34,14.34,0,0,0,4.5-8.59.37.37,0,0,1,.36-.32h0a.37.37,0,0,1,.34.35,12.46,12.46,0,0,0,3.66,8.25,12.09,12.09,0,0,0,6.23,3.19.36.36,0,0,1,.29.32.37.37,0,0,1-.22.38,16.73,16.73,0,0,0-10,11.83.36.36,0,0,1-.35.29Z"/><path class="cls-3" d="M397.8,387.16a.37.37,0,0,1-.36-.29,15.64,15.64,0,0,0-10.37-11.61.36.36,0,0,1-.24-.36.35.35,0,0,1,.27-.34,14,14,0,0,0,5.84-3.1,14.34,14.34,0,0,0,4.5-8.59.37.37,0,0,1,.36-.32h0a.37.37,0,0,1,.34.35,12.46,12.46,0,0,0,3.66,8.25,12.09,12.09,0,0,0,6.23,3.19.36.36,0,0,1,.29.32.37.37,0,0,1-.22.38,16.73,16.73,0,0,0-10,11.83.36.36,0,0,1-.35.29Z"/><path class="cls-4" d="M280.48,357.36a.36.36,0,0,0,.35-.28,15.68,15.68,0,0,1,10.37-11.62.36.36,0,0,0,0-.69,14,14,0,0,1-5.84-3.1,14.34,14.34,0,0,1-4.5-8.6.36.36,0,0,0-.36-.31h0a.37.37,0,0,0-.34.35,12.5,12.5,0,0,1-3.65,8.25,12.16,12.16,0,0,1-6.23,3.19.37.37,0,0,0-.3.32.35.35,0,0,0,.22.37,16.77,16.77,0,0,1,10,11.84.35.35,0,0,0,.35.28Z"/><path class="cls-4" d="M84.19,563.56a.55.55,0,0,0,.52-.44,24.41,24.41,0,0,1,6.54-12.26,23,23,0,0,1,8.67-5.45.56.56,0,0,0,.36-.55.55.55,0,0,0-.4-.52,20.16,20.16,0,0,1-8.57-4.73,22.07,22.07,0,0,1-6.6-13.1.55.55,0,0,0-.53-.48h0a.55.55,0,0,0-.51.53,19.39,19.39,0,0,1-5.36,12.58A17.41,17.41,0,0,1,69.15,544a.54.54,0,0,0-.43.49.55.55,0,0,0,.33.57,24.84,24.84,0,0,1,9.59,7.36,26.3,26.3,0,0,1,5,10.69.54.54,0,0,0,.52.44Z"/><path class="cls-3" d="M174.4,432.55a.5.5,0,0,0,.48-.4,22.75,22.75,0,0,1,6-11.33,21.34,21.34,0,0,1,8-5,.53.53,0,0,0,.34-.51.52.52,0,0,0-.37-.48,18.6,18.6,0,0,1-7.92-4.36,20.46,20.46,0,0,1-6.09-12.11.51.51,0,0,0-.49-.44h0a.52.52,0,0,0-.47.49A17.89,17.89,0,0,1,169,410a16.25,16.25,0,0,1-8.45,4.5.51.51,0,0,0-.4.45.53.53,0,0,0,.31.53,22.86,22.86,0,0,1,8.86,6.79,24.2,24.2,0,0,1,4.64,9.88.5.5,0,0,0,.48.4Z"/><path class="cls-2" d="M265.88,538.61a.36.36,0,0,0,.35-.28,15.68,15.68,0,0,1,10.37-11.62.34.34,0,0,0,.25-.35.37.37,0,0,0-.27-.34,14,14,0,0,1-5.84-3.1,14.22,14.22,0,0,1-4.5-8.6.37.37,0,0,0-.36-.31h0a.37.37,0,0,0-.35.35,12.5,12.5,0,0,1-3.65,8.25,12.09,12.09,0,0,1-6.23,3.19.36.36,0,0,0-.07.69,16.73,16.73,0,0,1,10,11.84.38.38,0,0,0,.36.28Z"/><path class="cls-3" d="M190.77,676a.55.55,0,0,0,.54-.46,25.65,25.65,0,0,1,6.85-12.83,24.18,24.18,0,0,1,9.07-5.71.59.59,0,0,0,0-1.11,21.06,21.06,0,0,1-9-5,23.1,23.1,0,0,1-6.91-13.72.58.58,0,0,0-.56-.5h0a.59.59,0,0,0-.54.56,20.28,20.28,0,0,1-5.6,13.17,18.28,18.28,0,0,1-9.57,5.09.59.59,0,0,0-.11,1.11,25.94,25.94,0,0,1,10,7.71,27.25,27.25,0,0,1,5.26,11.19.57.57,0,0,0,.55.45Z"/><path class="cls-2" d="M57.89,325.62a.54.54,0,0,1-.52-.44,24.41,24.41,0,0,0-6.54-12.26,23,23,0,0,0-8.67-5.45.57.57,0,0,1,0-1.07,20.05,20.05,0,0,0,8.57-4.73,22.07,22.07,0,0,0,6.6-13.1.55.55,0,0,1,.53-.48h0a.55.55,0,0,1,.51.53,19.37,19.37,0,0,0,5.36,12.58,17.41,17.41,0,0,0,9.14,4.87.56.56,0,0,1,.11,1.06,24.89,24.89,0,0,0-9.6,7.36,26.36,26.36,0,0,0-5,10.69.53.53,0,0,1-.52.44Z"/><path class="cls-2" d="M1311.73,427.16a.35.35,0,0,1-.35-.29A15.64,15.64,0,0,0,1301,415.26a.37.37,0,0,1-.25-.36.38.38,0,0,1,.27-.34,14,14,0,0,0,5.85-3.1,14.26,14.26,0,0,0,4.49-8.59.38.38,0,0,1,.37-.32h0a.37.37,0,0,1,.35.35,12.48,12.48,0,0,0,3.65,8.25,12.13,12.13,0,0,0,6.23,3.19.37.37,0,0,1,.3.32.39.39,0,0,1-.23.38,16.69,16.69,0,0,0-10,11.83.37.37,0,0,1-.36.29Z"/></svg>